<svg xmlns="http://www.w3.org/2000/svg" viewBox="254.1 122.9 283.8 223.7" fill="#ffffff" role="img" aria-label="Zelta Design"><path d="M 389.691406 131.101562 C 418.695312 131.101562 442.292969 154.699219 442.292969 183.703125 C 442.292969 212.703125 418.695312 236.300781 389.691406 236.300781 C 360.691406 236.300781 337.09375 212.703125 337.09375 183.703125 C 337.09375 154.699219 360.691406 131.101562 389.691406 131.101562 M 389.691406 240.523438 C 421.023438 240.523438 446.515625 215.03125 446.515625 183.703125 C 446.515625 152.371094 421.023438 126.878906 389.691406 126.878906 C 358.359375 126.878906 332.871094 152.371094 332.871094 183.703125 C 332.871094 215.03125 358.359375 240.523438 389.691406 240.523438 "/><path d="M 366.621094 219.1875 L 373.183594 210.40625 L 410.382812 210.40625 L 410.382812 204.890625 L 377.308594 204.890625 L 419.660156 148.214844 L 412.765625 148.214844 L 406.199219 156.996094 L 372.757812 156.996094 L 372.757812 162.515625 L 401.800781 162.515625 L 369.003906 206.726562 L 369.003906 206.769531 L 359.726562 219.1875 Z M 366.621094 219.1875 "/><path d="M 286.050781 274.769531 L 286.050781 272.039062 L 260.648438 272.039062 L 260.648438 275.820312 L 280.539062 275.820312 L 258.078125 306.101562 L 258.078125 308.621094 L 286.417969 308.621094 L 286.417969 304.84375 L 263.746094 304.84375 Z M 286.050781 274.769531 "/><path d="M 328.007812 291.199219 L 343.59375 291.199219 L 343.59375 287.414062 L 323.914062 287.414062 L 323.914062 308.625 L 344.957031 308.625 L 344.957031 304.839844 L 328.007812 304.839844 Z M 328.007812 291.199219 "/><path d="M 323.914062 272.039062 L 344.589844 272.039062 L 344.589844 275.8125 L 323.914062 275.8125 Z M 323.914062 272.039062 "/><path d="M 387.527344 272.039062 L 383.433594 272.039062 L 383.433594 308.621094 L 402.589844 308.621094 L 402.589844 304.84375 L 387.527344 304.84375 Z M 387.527344 272.039062 "/><path d="M 456.957031 272.039062 L 432.921875 272.039062 L 432.921875 275.820312 L 442.894531 275.820312 L 442.894531 308.621094 L 446.988281 308.621094 L 446.988281 275.820312 L 456.957031 275.820312 Z M 456.957031 272.039062 "/><path d="M 505.824219 272.039062 L 502.675781 272.039062 L 487.195312 308.621094 L 491.605469 308.621094 L 504.25 278.390625 L 516.898438 308.621094 L 521.308594 308.621094 Z M 505.824219 272.039062 "/><path d="M 528.027344 307.609375 C 527.359375 306.960938 527.035156 306.144531 527.035156 305.175781 C 527.035156 304.207031 527.359375 303.390625 528.027344 302.742188 C 528.691406 302.097656 529.488281 301.773438 530.457031 301.773438 C 531.425781 301.773438 532.246094 302.097656 532.910156 302.742188 C 533.578125 303.390625 533.921875 304.207031 533.921875 305.175781 C 533.921875 306.144531 533.578125 306.960938 532.910156 307.609375 C 532.246094 308.253906 531.425781 308.578125 530.457031 308.578125 C 529.488281 308.578125 528.691406 308.253906 528.027344 307.609375 M 533.34375 305.175781 C 533.34375 303.476562 532.117188 302.289062 530.457031 302.289062 C 528.820312 302.289062 527.617188 303.476562 527.617188 305.175781 C 527.617188 306.832031 528.820312 308.015625 530.457031 308.015625 C 532.117188 308.015625 533.34375 306.832031 533.34375 305.175781 M 529.230469 307.070312 L 529.230469 303.128906 L 530.609375 303.128906 C 531.363281 303.128906 531.859375 303.667969 531.859375 304.359375 C 531.859375 304.894531 531.621094 305.261719 531.167969 305.496094 L 532.117188 307.070312 L 531.40625 307.070312 L 530.523438 305.628906 L 529.832031 305.628906 L 529.832031 307.070312 Z M 529.832031 305.089844 L 530.585938 305.089844 C 530.953125 305.089844 531.234375 304.789062 531.234375 304.378906 C 531.234375 304.011719 530.953125 303.710938 530.585938 303.710938 L 529.832031 303.710938 Z M 529.832031 305.089844 "/><path d="M 321.253906 340.980469 L 318.632812 340.980469 L 318.632812 330.707031 L 321.234375 330.707031 C 324.746094 330.707031 326.585938 332.714844 326.585938 335.851562 C 326.585938 338.972656 324.746094 340.980469 321.253906 340.980469 M 321.347656 329.371094 L 317.1875 329.371094 L 317.1875 342.316406 L 321.367188 342.316406 C 323.425781 342.316406 325.0625 341.722656 326.25 340.554688 C 327.4375 339.363281 328.035156 337.804688 328.035156 335.851562 C 328.035156 333.902344 327.4375 332.34375 326.230469 331.152344 C 325.042969 329.964844 323.410156 329.371094 321.347656 329.371094 "/><path d="M 348.738281 336.152344 L 354.253906 336.152344 L 354.253906 334.8125 L 348.738281 334.8125 L 348.738281 330.707031 L 354.605469 330.707031 L 354.605469 329.371094 L 347.289062 329.371094 L 347.289062 342.316406 L 354.738281 342.316406 L 354.738281 340.980469 L 348.738281 340.980469 Z M 348.738281 336.152344 "/><path d="M 377.738281 334.851562 L 376.621094 334.347656 C 376.417969 334.238281 376.175781 334.070312 375.863281 333.867188 C 375.269531 333.421875 375.101562 332.976562 375.101562 332.308594 C 375.101562 331.246094 376.011719 330.46875 377.179688 330.46875 C 378.203125 330.46875 378.964844 330.914062 379.445312 331.824219 L 380.691406 331.191406 C 379.949219 329.816406 378.777344 329.128906 377.199219 329.128906 C 376.175781 329.128906 375.324219 329.425781 374.65625 330.039062 C 373.984375 330.652344 373.652344 331.414062 373.652344 332.34375 C 373.652344 333.289062 373.929688 334.035156 374.46875 334.535156 C 375.007812 335.035156 375.882812 335.558594 377.050781 336.078125 C 378.109375 336.539062 378.871094 336.96875 379.300781 337.339844 C 379.726562 337.710938 379.949219 338.25 379.949219 338.953125 C 379.949219 339.402344 379.855469 339.789062 379.539062 340.332031 C 379.222656 340.867188 378.445312 341.242188 377.347656 341.242188 C 375.824219 341.242188 374.746094 340.460938 374.097656 338.898438 L 372.851562 339.476562 C 373.597656 341.535156 375.269531 342.578125 377.328125 342.578125 C 378.613281 342.578125 379.613281 342.242188 380.320312 341.554688 C 381.046875 340.867188 381.398438 339.996094 381.398438 338.9375 C 381.398438 337.914062 381.117188 337.136719 380.542969 336.578125 C 379.984375 336.003906 379.058594 335.425781 377.738281 334.851562 "/><path d="M 402.03125 329.371094 L 400.582031 329.371094 L 400.582031 342.316406 L 402.03125 342.316406 Z M 402.03125 329.371094 "/><path d="M 427.628906 336.597656 L 431.585938 336.597656 L 431.585938 339.941406 C 430.601562 340.8125 429.414062 341.242188 428.039062 341.242188 C 426.515625 341.242188 425.25 340.738281 424.25 339.714844 C 423.246094 338.695312 422.742188 337.394531 422.742188 335.855469 C 422.742188 334.3125 423.246094 333.03125 424.25 332.007812 C 425.25 330.988281 426.515625 330.46875 428.039062 330.46875 C 429.429688 330.46875 430.621094 330.914062 431.605469 331.820312 L 432.515625 330.820312 C 431.289062 329.6875 429.800781 329.128906 428.039062 329.128906 C 426.160156 329.128906 424.5625 329.78125 423.246094 331.0625 C 421.945312 332.34375 421.296875 333.941406 421.296875 335.855469 C 421.296875 337.765625 421.945312 339.382812 423.246094 340.664062 C 424.5625 341.945312 426.160156 342.578125 428.039062 342.578125 C 430.042969 342.578125 431.714844 341.871094 433.035156 340.441406 L 433.035156 335.257812 L 427.628906 335.257812 Z M 427.628906 336.597656 "/><path d="M 461.6875 339.738281 L 453.867188 329.371094 L 452.605469 329.371094 L 452.605469 342.316406 L 454.054688 342.316406 L 454.054688 331.839844 L 461.96875 342.316406 L 463.136719 342.316406 L 463.136719 329.371094 L 461.6875 329.371094 Z M 461.6875 339.738281 "/></svg>